
        <svg xmlns="http://www.w3.org/2000/svg" viewBox="0 0 28 26" fill="none">
        <g filter="url(#filter0_d_11_2719)">
            <path d="M20.955 11.2664H17.1767C17.209 11.0579 17.2252 10.8473 17.2252 10.6363V6.59735C17.224 5.51104 16.7919 4.46958 16.0238 3.70144C15.2556 2.93331 14.2142 2.50123 13.1279 2.5H7.15984C6.07354 2.50123 5.03208 2.93331 4.26394 3.70145C3.49581 4.46958 3.06373 5.51104 3.0625 6.59735V10.6363C3.06373 11.7226 3.49581 12.7641 4.26394 13.5322C5.03208 14.3004 6.07354 14.7324 7.15984 14.7337H10.9391C10.9063 14.9421 10.8898 15.1527 10.8896 15.3637V19.4027C10.8908 20.489 11.3229 21.5304 12.0911 22.2986C12.8592 23.0667 13.9006 23.4988 14.9869 23.5H20.955C22.0413 23.4988 23.0828 23.0667 23.8509 22.2986C24.6191 21.5304 25.0511 20.489 25.0524 19.4027V15.3637C25.0511 14.2774 24.619 13.2359 23.8509 12.4678C23.0828 11.6997 22.0413 11.2676 20.955 11.2664ZM3.94557 10.6363V6.59735C3.94653 5.74517 4.28549 4.92817 4.88808 4.32559C5.49066 3.72301 6.30766 3.38406 7.15984 3.3831H13.1279C13.9801 3.38406 14.797 3.72301 15.3996 4.32559C16.0022 4.92817 16.3412 5.74517 16.3421 6.59735V10.6363C16.3412 11.4885 16.0022 12.3055 15.3996 12.9081C14.797 13.5107 13.9801 13.8496 13.1279 13.8506H7.15984C6.30766 13.8496 5.49066 13.5107 4.88808 12.9081C4.28549 12.3055 3.94653 11.4885 3.94557 10.6363ZM21.2862 16.3563H20.2099C19.9162 17.4049 19.37 18.3655 18.619 19.1541C18.9955 19.455 19.4025 19.7155 19.8334 19.9312L20.4341 20.2329C20.486 20.2589 20.5321 20.2949 20.5701 20.3387C20.608 20.3826 20.6369 20.4335 20.6551 20.4886C20.6734 20.5436 20.6806 20.6017 20.6764 20.6595C20.6722 20.7174 20.6566 20.7738 20.6306 20.8256C20.6046 20.8774 20.5686 20.9236 20.5247 20.9615C20.4809 20.9995 20.43 21.0284 20.3749 21.0466C20.3199 21.0649 20.2618 21.0721 20.2039 21.0679C20.1461 21.0637 20.0897 21.0481 20.0378 21.0221L19.4371 20.7204C18.9132 20.4586 18.4206 20.1382 17.969 19.7652C17.5188 20.1382 17.0275 20.4587 16.5047 20.7204L15.9041 21.0221C15.7994 21.0746 15.6782 21.0834 15.567 21.0466C15.4559 21.0097 15.3639 20.9303 15.3113 20.8256C15.2588 20.7209 15.25 20.5997 15.2868 20.4885C15.3236 20.3774 15.4031 20.2854 15.5078 20.2328L16.1084 19.9312C16.5384 19.7158 16.9443 19.4556 17.3196 19.155C16.8749 18.6835 16.4995 18.1512 16.2046 17.574C16.1782 17.5224 16.1623 17.466 16.1578 17.4082C16.1532 17.3504 16.1601 17.2923 16.178 17.2371C16.1959 17.182 16.2245 17.1309 16.2622 17.0868C16.2998 17.0427 16.3458 17.0065 16.3975 16.9801C16.4492 16.9538 16.5055 16.9379 16.5633 16.9334C16.6211 16.9288 16.6792 16.9357 16.7344 16.9536C16.7895 16.9715 16.8406 17.0001 16.8847 17.0378C16.9288 17.0754 16.9651 17.1214 16.9914 17.1731C17.2498 17.6784 17.579 18.1442 17.9691 18.5563C18.5669 17.9302 19.0174 17.1786 19.2879 16.3563H14.6558C14.5386 16.3563 14.4263 16.3098 14.3435 16.2269C14.2607 16.1441 14.2142 16.0318 14.2142 15.9147C14.2142 15.7976 14.2607 15.6853 14.3435 15.6025C14.4263 15.5197 14.5386 15.4732 14.6558 15.4732H17.5294V14.1389C17.5294 14.0218 17.576 13.9095 17.6588 13.8267C17.7416 13.7439 17.8539 13.6974 17.971 13.6974C18.0881 13.6974 18.2004 13.7439 18.2832 13.8267C18.366 13.9095 18.4125 14.0218 18.4125 14.1389V15.4732H21.2862C21.4033 15.4732 21.5156 15.5197 21.5984 15.6025C21.6812 15.6853 21.7277 15.7976 21.7277 15.9147C21.7277 16.0318 21.6812 16.1441 21.5984 16.2269C21.5156 16.3098 21.4033 16.3563 21.2862 16.3563Z" fill="white"/>
            <path d="M10.9338 6.24469C10.7896 5.88806 10.4869 5.6665 10.1438 5.6665C9.80072 5.6665 9.49799 5.88806 9.3538 6.24472L7.44771 10.96C7.42598 11.0138 7.41505 11.0713 7.41554 11.1293C7.41604 11.1872 7.42795 11.2446 7.4506 11.2979C7.47325 11.3513 7.50619 11.3997 7.54754 11.4404C7.58889 11.481 7.63785 11.5131 7.6916 11.5348C7.74536 11.5566 7.80288 11.5675 7.86086 11.567C7.91884 11.5665 7.97616 11.5546 8.02954 11.5319C8.08292 11.5093 8.13131 11.4764 8.17196 11.435C8.21261 11.3937 8.24472 11.3447 8.26645 11.2909L8.98106 9.52316H11.3066L12.0212 11.2909C12.0428 11.3449 12.0748 11.394 12.1154 11.4355C12.1561 11.477 12.2045 11.5101 12.258 11.5329C12.3114 11.5557 12.3688 11.5677 12.4269 11.5682C12.485 11.5687 12.5426 11.5578 12.5965 11.536C12.6503 11.5143 12.6994 11.4821 12.7408 11.4413C12.7822 11.4006 12.8151 11.352 12.8377 11.2985C12.8604 11.245 12.8722 11.1876 12.8726 11.1295C12.8729 11.0714 12.8618 11.0138 12.8399 10.96L10.9338 6.24469ZM9.33804 8.64006L10.1438 6.64676L10.9496 8.64006H9.33804Z" fill="white"/>
        </g>
        <defs>
            <filter id="filter0_d_11_2719" x="0.875" y="0.3125" width="26.3649" height="25.375" filterUnits="userSpaceOnUse" color-interpolation-filters="sRGB">
            <feFlood flood-opacity="0" result="BackgroundImageFix"/>
            <feColorMatrix in="SourceAlpha" type="matrix" values="0 0 0 0 0 0 0 0 0 0 0 0 0 0 0 0 0 0 127 0" result="hardAlpha"/>
            <feOffset/>
            <feGaussianBlur stdDeviation="1.09375"/>
            <feComposite in2="hardAlpha" operator="out"/>
            <feColorMatrix type="matrix" values="0 0 0 0 1 0 0 0 0 1 0 0 0 0 1 0 0 0 0.35 0"/>
            <feBlend mode="normal" in2="BackgroundImageFix" result="effect1_dropShadow_11_2719"/>
            <feBlend mode="normal" in="SourceGraphic" in2="effect1_dropShadow_11_2719" result="shape"/>
            </filter>
        </defs>
        </svg>
        