<svg xmlns="http://www.w3.org/2000/svg" width="24" height="24" viewBox="0 0 24 24" fill="none">
            <g clip-path="url(#clip0_11_2739)">
                <path d="M18 4.5V0H12.75C11.5073 0 10.5 1.00734 10.5 2.25V15.75C10.5 16.9927 11.5073 18 12.75 18H21.75C22.9927 18 24 16.9927 24 15.75V6H19.5422C18.675 6 18 5.325 18 4.5ZM19.5 0V4.5H24L19.5 0ZM9 16.5V6H2.25C1.00734 6 0 7.00734 0 8.25V21.75C0 22.9927 1.00734 24 2.25 24H11.25C12.4927 24 13.5 22.9927 13.5 21.75V19.5H12C10.3453 19.5 9 18.1547 9 16.5Z" fill="#75c3ff "/>
            </g>
            <defs>
                <clipPath id="clip0_11_2739">
                <rect width="24" height="24" fill="white"/>
                </clipPath>
            </defs>
            </svg>